<svg height="500pt" preserveAspectRatio="xMidYMid meet" viewBox="0 0 500 500" width="500pt" xmlns="http://www.w3.org/2000/svg"><g transform="matrix(.1 0 0 -.1 0 500)"><path d="m4173 3818c-27-33-239-421-279-509-6-13-27-55-48-94-20-39-41-98-47-132-7-39-23-80-41-108-21-32-33-66-41-117-6-40-19-84-29-97-21-27-22-42-8-93 13-46 34-68 66-68 39 0 60 31 78 116 10 43 24 94 32 112s14 42 14 52c0 11 4 28 10 38 5 9 19 43 31 74 19 55 21 57 50 51 32-6 38 7 14 27-8 7-15 19-15 26 0 21 28 17 40-5 9-19 12-19 46-5 24 10 40 12 48 5 15-12 53-9 83 7 12 7 31 12 42 12s25 8 30 18c9 15 10 14 11-9 0-14 11-40 25-59 20-27 25-46 25-91 0-39 5-61 16-69 12-10 14-25 8-66-7-59 1-94 21-94 11 0 12-6 3-30-8-25-7-34 6-49 9-10 16-27 16-39 0-18 6-22 33-22 46 0 122 54 109 77-5 9-7 24-4 35 7 29-19 179-39 222-23 48-25 139-4 179 8 15 17 43 20 61 6 31 4 33-34 48-31 13-41 22-41 39 0 12-7 30-15 40-10 10-18 45-22 90-3 47-12 81-22 93-14 16-21 59-21 139 0 29-17 36-38 15-9-9-12-9-12 3 0 8 4 19 9 25 5 5 6 35 4 67-6 65-20 80-84 92-24 4-39 2-46-7zm2-240c4-24 13-52 19-63 7-11 16-51 19-90 4-38 12-74 19-80s12-25 10-43c-2-21 3-41 12-51 15-16 14-19-5-37-19-17-21-18-30-1-12 20-36 22-76 6-32-13-119-18-136-7-12 7 44 169 68 198 7 8 30 49 50 90 29 57 35 78 27 91-10 16-7 29 9 29 4 0 10-19 14-42zm325-824c0-8-4-14-10-14-5 0-10 9-10 21 0 11 5 17 10 14 6-3 10-13 10-21z"/><path d="m1558 3724c-29-9-49-22-53-34-3-10-15-22-26-25-10-4-24-15-29-26-8-14-17-18-35-13-18 4-27 1-32-12-4-10-2-19 5-22 7-2 12-8 12-14s-6-6-15 2c-20 16-35 4-35-29 0-20-7-31-26-40-22-10-26-17-22-46 3-29 1-34-17-32-15 1-21-5-23-24-2-17-11-29-23-32-11-3-19-14-19-25s-7-25-15-32-15-29-15-50c0-20-9-63-21-96-18-52-20-74-15-189 5-116 8-131 26-144 11-7 20-24 20-38 0-13 7-26 15-29s17-15 20-26c6-15 12-18 36-13 27 6 29 5 29-24 0-24 4-31 19-31 11 0 23-4 26-10 9-14 59-12 73 2 10 10 11 6 6-18-5-27-3-32 17-37 15-4 40 2 66 14 36 17 43 26 43 49 0 43 17 45 25 4 6-35 7-35 26-18 10 9 19 26 19 37 0 13 5 17 16 13 24-9 54 12 54 38 0 25 28 56 52 56 21 0 38 43 38 97 0 31 8 60 25 88 26 46 47 122 35 130-4 2-10 21-13 42-5 30-1 45 17 73 35 51 59 245 32 262-6 4-4 14 8 27 18 20 18 22 1 41-11 12-16 30-13 49 4 25 1 30-21 34-31 6-47-5-55-38-9-35-27-31-20 4 11 54-76 124-151 120-11-1-41-8-67-15zm140-168c34-35 62-71 62-80s5-16 11-16c7 0 9-19 4-59-6-53-4-61 15-79l23-21-26-30c-19-23-28-50-37-118-16-115-27-151-60-193-15-19-41-61-57-94l-29-58-85-3c-51-2-89 2-98 8-7 7-26 10-42 9-17-2-29 1-29 8 0 6-19 32-43 58-77 84-81 95-83 214-2 81 1 110 12 119 8 6 14 24 14 40 0 15 6 32 13 36s25 29 40 55c27 46 192 208 213 208 6 0 19 9 29 20s28 20 41 20 26 5 29 10c11 18 21 11 83-54z"/><path d="m440 3699c-43-16-61-64-65-175-6-139-13-233-25-349-27-272-30-346-13-371 14-21 14-30 3-63-12-39-2-81 20-81 16 0 21 19 9 41-9 17-8 23 2 30 23 15 29 10 29-21 0-35 19-47 50-30 15 8 19 17 15 31-5 15 0 22 24 30 30 11 31 13 33 72 4 152 4 183-5 194-5 7-6 25-2 40 4 16 8 51 9 78 1 28 5 56 10 63 4 7 5 25 2 39-12 46 16 20 36-34 10-28 37-70 58-92 34-35 40-47 40-85 0-57 17-104 41-111 13-5 19-14 18-28-2-26 8-75 22-99 5-10 9-28 9-41 0-32 18-47 56-47 17 0 37-7 44-15 17-20 25-19 38 8 10 22 11 22 11-5 1-31 17-36 46-14 17 12 17 16 6 30-8 9-11 19-7 23 3 4 12-1 19-11 10-14 15-15 29-4s15 23 6 83c-5 39-9 87-9 108 1 23-3 36-9 32-14-8-13 1 4 33 7 15 17 47 21 72s14 58 22 73c11 21 11 32 3 42s-8 19-1 34c16 29 13 63-6 91-12 17-13 25-5 28 7 2 12 19 12 37 0 19 5 37 11 41 6 3 9 20 6 38-3 20 1 35 11 42 24 18 7 47-24 41-32-6-29 22 4 39 40 20 44 29 28 59-14 27-20 29-72 30-31 0-58-4-60-10-2-5-10-64-18-130-17-139-32-222-52-285-8-25-14-57-14-72 0-14-3-33-6-42-11-28-24-17-24 18 0 45-17 89-31 80-6-3-9-20-7-36 3-16 1-31-3-33-13-9-20 45-8 67 8 15 8 31 0 58-14 47-37 57-66 30-41-38-60-21-25 23 24 30 26 57 5 57-9 0-15 6-14 13 5 42-2 58-23 55-18-2-24 3-26 20-3 19-6 21-18 11-8-7-22-29-31-48-14-32-17-33-20-14-2 12 1 31 6 42 6 11 11 38 11 60 0 23 5 50 12 61 10 15 9 22-5 38-9 10-20 33-23 50-12 58-64 83-124 61zm66-76c-10-10-19 5-10 18 6 11 8 11 12 0 2-7 1-15-2-18zm14-323c0-5-4-10-10-10-5 0-10 5-10 10 0 6 5 10 10 10 6 0 10-4 10-10zm231-103c-8-8-11-3-11 19 1 25 2 27 11 11 8-14 8-22 0-30zm205 17c-4-9-9-15-11-12-3 3-3 13 1 22s9 15 11 12c3-3 3-13-1-22zm-134-306c-15-15-26-4-18 18 5 13 9 15 18 6s9-15 0-24zm6-156c2-7-3-12-12-12s-16 7-16 16c0 17 22 14 28-4z"/><path d="m1810 3679c0-5 5-7 10-4 6 3 10 8 10 11 0 2-4 4-10 4-5 0-10-5-10-11z"/><path d="m2967 3653c-10-9-8-43 2-43 5 0 14 7 21 15 17 21-4 48-23 28z"/><path d="m3026 3652c-11-19 5-43 26-37 16 6 18 3 12-22-3-15-13-34-22-40-19-15-62-17-62-3 0 16-23 11-47-9-25-21-42-108-43-215 0-33-4-85-10-115-20-118-30-269-19-301 9-25 8-34-4-48-12-13-14-33-10-87 8-97 25-115 107-113 34 1 68 0 76-3 10-3 16 5 18 24 4 34 15 35 30 2 21-45 69-21 56 29-7 31 11 36 21 5 9-28 26-20 50 24 24 43 40 49 30 10-3-16-9-43-12-60-5-31-4-33 25-33 37 0 45 10 33 42-10 28 6 68 27 68 13 0 12-3-2-19-21-23-14-41 15-41 25 0 24-8-2-36-23-25-20-65 4-47 12 10 122 9 167-2 14-4 42 1 63 10 44 18 70 66 61 113-7 33-58 77-79 68-8-3-17-1-20 4-9 14-63 12-67-2-3-9-9-8-22 5-21 21-144 25-164 5-9-9-12-9-12 0 0 16-27 16-32 0-4-10-10-10-32 0-37 16-66 15-88-4-21-20-35-11-80 50l-28 39 20 22c27 29 38 85 17 85-23 0-30 17-16 41 10 19 8 25-11 39l-23 17 18 54c10 30 26 67 37 84 10 18 18 49 18 76 0 33 6 51 20 64 16 14 19 26 14 47-3 17-1 35 6 43 9 11 9 15 1 15-6 0-11-5-11-11 0-5-4-7-10-4-5 3-1 22 11 45 11 22 18 48 15 58-9 26-63 76-70 64zm-46-820c0-4-9-13-20-20-22-13-27-3-8 16 14 14 28 16 28 4z"/><path d="m2548 3643c-23-4-28-9-28-32 0-37-24-59-38-35-8 14-25 18-77 20-71 2-88-6-122-62-12-19-12-18-30 4-25 31-47 21-79-34-15-26-36-47-50-50-13-3-26-14-29-24s-16-20-28-22c-25-3-39-49-41-131-1-43 3-52 32-78 18-16 41-29 51-29s26-11 35-25 44-39 79-56c52-27 66-30 89-21 16 6 26 6 22 1-3-5 11-26 30-45 35-35 44-37 88-19 13 5 15 2 11-16-6-21-4-22 30-16 45 7 55-4 69-82 9-47 9-63-2-75-20-26-142-86-185-93-22-3-46-10-53-16-9-7-16-7-24 1-19 19-28 14-28-17 0-26-14-41-41-41-5 0-9 11-9 25 0 32-28 45-45 22-7-10-14-17-17-17-16 0-70 108-79 158-14 78-39 118-79 127-44 10-66-15-75-82-6-43-4-54 9-59 9-3 16-16 16-29 0-12 7-29 16-36s27-37 41-65c24-52 64-82 95-72 7 3 20-4 28-15 15-18 18-18 103-1 64 12 94 14 110 7 39-18 151 17 228 70 36 26 72 53 78 61 7 8 19 12 27 9 16-6 19 13 3 22-6 4 4 17 25 31 41 28 39 24 26 60-9 22-7 29 10 41 26 18 25 38-2 58-22 16-23 16-4 30s18 17-26 72c-35 45-55 61-89 72-24 7-57 20-73 27-25 13-31 13-46-1-23-21-28-19-32 13-3 25-7 27-57 32-43 5-58 11-75 33-28 35-45 34-52-3-4-16-10-30-13-30-22 0-62 28-67 47-5 18-11 21-35 16-24-4-30-1-40 21-16 34 6 59 70 81 58 19 138 60 164 83 15 12 21 14 24 5 6-18 34-16 85 5 33 14 73 19 168 21 113 1 127 3 143 22 21 26 22 82 1 100-10 8-44 13-89 14-45 0-79 5-87 13-6 6-17 11-22 11-6-1-23-4-38-6zm-233-493c3-5-1-10-9-10-9 0-16 5-16 10 0 6 4 10 9 10 6 0 13-4 16-10zm102-6c-3-3-12-4-19-1-8 3-5 6 6 6 11 1 17-2 13-5zm263-168c0-7-9-21-20-31-18-17-21-17-45-1-36 24-34 49 4 41 17-3 32-2 36 5 8 13 25 4 25-14z"/><path d="m2910 3606c0-9 7-16 16-16s14 5 12 12c-6 18-28 21-28 4z"/><path d="m600 3509c-7-11-9-24-5-27 7-7 35 25 35 40 0 16-19 8-30-13z"/><path d="m3155 2651c-3-5-1-12 5-16 5-3 10 1 10 9 0 18-6 21-15 7z"/><path d="m3543 2378c-45-73-243-429-243-435 0-4-25-55-54-114-37-71-59-128-67-173-7-44-20-77-36-97-24-28-52-118-53-170 0-15-7-32-15-39-19-16-20-92 0-129 30-58 107-44 120 21 18 95 28 136 41 166 8 18 14 38 14 45 0 6 9 34 19 62 11 27 25 65 32 83 11 29 15 32 40 27 32-7 36 0 14 29-8 11-15 23-15 28 0 15 33 8 45-9 11-14 16-15 43-4 23 10 34 10 48 1 15-9 29-8 64 5 25 9 54 18 64 19 11 1 22 8 24 14 2 7 8 10 12 7 5-3 7-12 4-20-4-8 6-29 20-46 21-25 26-41 26-88 0-35 6-65 16-79 11-16 13-34 9-65-7-47 9-102 26-91 10 6 8-10-8-52-2-6 3-17 12-24 8-7 15-23 15-35 0-17 7-24 31-29 24-4 40 1 74 24 41 28 43 31 39 72-17 159-26 204-45 238-18 32-21 49-17 105 3 36 12 74 20 83s15 32 16 49c2 29-2 34-33 47-19 8-38 23-41 33s-10 27-16 37c-12 22-17 51-23 126-3 37-10 59-22 67-13 10-18 30-20 85-2 39-5 74-8 77s-15 0-25-7c-16-10-20-10-20 2 0 8 4 17 8 20 5 3 8 31 8 62-1 49-5 59-26 75-14 10-41 21-61 24-33 6-38 4-56-27zm17-220c0-16 6-44 14-61 8-18 17-55 20-84s11-63 17-75c7-13 12-39 10-60-2-26 2-39 16-46 17-10 17-11-2-32-18-20-20-20-32-5-9 14-20 16-50 10-21-3-66-9-100-12-62-5-63-4-63 20 0 26 54 162 74 187 7 8 29 48 50 88 28 54 35 76 27 86-6 7-8 16-5 19 13 12 24-4 24-35zm280-688c0-5-5-10-11-10-5 0-7 5-4 10 3 6 8 10 11 10 2 0 4-4 4-10zm40-131c0-11-4-17-10-14-5 3-10 13-10 21s5 14 10 14c6 0 10-9 10-21z"/><path d="m2231 2373c-5-10-20-19-33-20-62-6-88-16-88-34 0-12-5-16-15-13-11 5-17-3-21-25-4-18-16-38-26-46-26-18-15-35 23-35 27 0 29-3 29-39 0-21-7-58-15-82-21-60-47-228-40-257 3-13 1-30-5-37s-13-66-15-131c-2-66-9-166-14-224-12-127-1-182 42-212 21-15 31-18 40-9 6 6 17 11 24 11 20 0 91 49 98 68 3 8 0 19-7 23s-9 11-5 16c5 4 12 1 16-6 8-13 21-12 76 2 6 1 16 6 23 10 7 5 12 4 12-2 0-17 18-13 58 14 20 14 49 25 65 25 40 0 118 43 145 79 16 22 31 31 50 31 20 0 35 9 50 30 13 17 32 30 43 30 17 0 20 5 17 25-5 21-2 24 17 19 18-4 27 1 40 23 10 15 39 45 66 66 42 32 48 41 43 63-4 16-1 31 9 42 8 9 17 28 19 42 3 22 0 25-24 22-34-3-36 13-6 38 22 17 22 17 3 66-23 63-31 73-55 67-13-4-22 1-26 13-26 80-69 123-96 96-18-18-26-15-30 11-2 14-9 21-19 19-9-1-22 5-29 13s-19 15-26 15-21 11-29 24c-23 34-93 68-116 56-27-15-39-12-39 10 0 27-19 34-55 20-33-12-43-7-25 15 10 12 10 15-2 15-22 0-72 27-93 50-22 25-41 26-54 3zm15-71c-9-9-37 8-31 18 5 8 11 7 21-1 8-6 12-14 10-17zm114-117c0-9 7-27 16-41 13-19 20-22 30-13 17 14 44 5 44-16s17-19 30 5c15 28 30 25 30-5 0-18 7-28 24-34 13-5 41-25 62-45 26-24 45-34 57-30 24 8 67-32 67-62 0-17 4-21 20-17 23 6 25 0 9-29-9-17-8-24 3-32 7-6 18-29 24-51 9-35 7-45-15-80-36-59-101-124-117-118-10 4-14-3-14-22 0-27-1-28-20-10-19 17-20 17-29-7-13-36-33-48-90-55-28-3-56-11-61-18-6-7-20-11-30-8-20 5-44-2-129-39-56-25-96-18-87 17 3 13 1 27-5 30-7 5-3 14 10 26 23 21 27 44 11 54-13 8-13 52 1 61 6 3 9 17 6 30-5 29 7 141 18 167 5 12 3 17-9 17-20 0-20 2 4 47 30 57 34 96 15 137-20 41-14 71 12 62 21-8 33 10 33 53 0 30 2 33 24 27 14-3 28-2 31 4 9 15 25 12 25-5zm470-280c0-8-7-15-15-15s-15 7-15 15 7 15 15 15 15-7 15-15zm-420-429c0-3-4-8-10-11-5-3-10-1-10 4 0 6 5 11 10 11 6 0 10-2 10-4zm-55-46c-3-5-12-10-18-10-7 0-6 4 3 10 19 12 23 12 15 0z"/><path d="m1368 2327c-16-6-28-14-28-18 0-5-11-25-25-45-28-42-32-64-10-64 8 0 15-4 15-10 0-5-6-10-13-10-9 0-14-14-15-40-1-21-10-61-20-87-13-34-18-71-16-123 1-41-3-81-9-88-5-7-11-34-12-61-1-26-4-52-7-57-4-5-6-62-6-127 0-67-4-123-10-130-12-13-12-281 0-292 3-4 17-1 30 7 12 7 34 13 47 13 38 0 83 70 86 132 3 56-2 68-20 53-9-8-14-6-19 5-3 8-13 15-23 15-16 0-16 1-1 17 14 13 20 14 32 3 18-14 19-10 20 70 1 43 2 45 28 42 19-2 28 3 33 18 11 35 38 19 64-37 28-59 43-65 68-27 13 21 14 30 5 45-8 12-8 19-2 19 5 0 10-4 10-10 0-5 12-10 27-10h27l-28-29c-29-31-27-51 9-81 9-8 25-31 36-52s25-38 31-38c7 0 26-14 44-31 38-37 66-33 86 11 15 34 23 37 32 14 6-15 8-15 26 1 11 10 26 15 35 12 28-11 16 23-24 66-41 44-62 45-43 2 6-14 9-32 6-40-9-23-47 29-39 54 7 24-11 37-30 21-11-9-14-4-17 32-2 34-7 44-23 47-21 4-65 45-65 62 0 5-13 9-29 9s-34 7-42 16c-7 9-21 13-33 10s-28 3-42 17c-12 12-32 29-45 38l-23 16 20 34c14 24 28 34 48 36 36 3 56 20 56 49 0 27 19 42 30 24 10-16 35-2 74 39 17 17 37 31 46 31s27 11 40 25c12 13 32 23 44 22 16-1 26 8 41 41 20 43 35 54 35 27 0-20 9-19 32 2 11 10 34 22 51 28 28 9 97 84 97 104 0 5-30 11-66 15-61 6-68 5-89-17-13-12-47-34-75-47-33-15-50-29-48-39 5-31-11-41-55-35-38 6-44 3-56-19-8-14-26-31-42-37-16-7-34-18-40-26s-25-14-41-14c-22 0-31-6-35-21-4-12-17-22-35-26s-34-16-44-35c-14-26-48-48-76-48-6 0-1 11 12 25 19 20 22 31 16 65-4 23-1 58 5 80 9 30 9 43 0 53-9 12-7 16 11 20 18 5 20 9 10 19-9 9-8 16 5 30s13 20 3 33c-10 12-10 18 0 30 15 18 6 89-15 122-12 18-12 23 0 33 8 7 12 16 9 21-6 11-10 10-46-4zm-43-307c3-5 1-10-4-10-6 0-11 5-11 10 0 6 2 10 4 10 3 0 8-4 11-10zm425-50c0-5-8-10-17-10-15 0-16 2-3 10 19 12 20 12 20 0zm-260-134c0-3-4-8-10-11-5-3-10-1-10 4 0 6 5 11 10 11 6 0 10-2 10-4zm-83-123c-3-3-20-2-38 2l-33 7 23 19c23 19 24 19 38-1 8-12 13-24 10-27zm-92-153c3-5 2-10-4-10-5 0-13 5-16 10-3 6-2 10 4 10 5 0 13-4 16-10zm-5-66c0-8-4-12-10-9-5 3-10 13-10 21s5 12 10 9c6-3 10-13 10-21zm370-35c0-4-7-6-15-3-8 4-15 10-15 15 0 4 7 6 15 3 8-4 15-10 15-15zm-430-223c0-2-8-10-17-17-16-13-17-12-4 4s21 21 21 13z"/><path d="m795 2286c-16-7-39-23-49-35-11-12-46-36-77-52-59-32-93-61-167-145-113-128-146-170-164-208-10-23-30-56-43-74-26-37-48-119-36-140 4-8-1-45-12-84-35-129-6-199 106-257 56-29 71-33 86-24 15 10 22 9 30-1 16-19 197-14 238 8 17 8 33 21 35 27s22 14 43 18c34 5 40 10 43 34 3 21 9 27 27 27 22 0 51 31 40 42-2 2 8 5 22 6l27 2-22-23c-12-13-19-27-15-30 11-12 63 45 63 69 0 23 24 54 41 54 15 0 49 81 49 116 0 46-21 60-70 45-38-11-90-60-90-86 0-17-58-73-84-81-12-4-37-19-57-35-24-18-43-26-57-23-26 7-93-14-108-34-8-11-13-12-18-4-4 7-25 12-47 12s-54 6-72 14c-36 14-117 100-117 123 0 7 16 37 35 66 19 28 35 59 35 67 0 9 11 31 25 50s25 42 25 52 22 42 50 73c27 30 58 72 69 93 20 39 73 92 92 92 6 0 34 22 62 49 71 67 112 70 155 11 25-34 64-40 98-15 43 29 78 156 40 142-6-3-28 11-48 31-36 34-38 35-57 18-19-18-21-17-54 3-40 24-34 24-72 7zm207-738c-7-7-12-8-12-2 0 14 12 26 19 19 2-3-1-11-7-17z"/><path d="m4000 2250c-69-43-71-47-64-87 7-38 69-169 84-178 5-3 20-29 33-58 13-28 38-67 54-84 17-18 27-33 22-33s-9-9-9-20 6-20 13-20c23 0 75-30 81-46 3-9-7-59-24-110-16-52-30-114-30-138 0-25-5-67-12-95-16-70 5-165 36-157 11 3 24-1 30-8 23-29 51-27 95 5 38 27 42 34 36 57-12 47-12 134 2 222 7 47 13 109 13 138 0 30 6 66 13 80 8 15 21 42 30 60 9 19 17 44 17 56 0 29 26 65 55 76 17 6 25 20 30 52 5 24 10 37 12 30 3-8 13-5 34 12 15 13 32 26 36 28 4 1 21 20 36 41 15 20 34 37 41 37 12 0 36 40 36 62 0 5-7 8-15 4-8-3-30 1-49 9-52 22-72 19-109-17-19-18-67-62-107-98-39-36-78-77-86-92s-23-32-34-38c-16-9-26-4-58 27-21 21-41 46-45 56-3 9-11 17-17 17-5 0-10 8-10 19 0 10-22 42-50 72-27 29-47 57-43 62 6 10-17 87-26 86-3 0-26-13-51-29zm154-286c4-11 1-14-11-12-10 2-19 11-21 21-4 21 24 13 32-9zm196-184c21-21 18-45-6-54-9-3-16 4-20 19s-13 25-25 25-16 5-13 15c8 21 40 19 64-5zm-30-210c0-5-5-10-11-10-5 0-7 5-4 10 3 6 8 10 11 10 2 0 4-4 4-10z"/><path d="m4733 2220c-21-9-33-40-15-40 13 0 52 30 52 41s-8 11-37-1z"/><path d="m1450 1539c0-5 5-7 10-4 6 3 10 8 10 11 0 2-4 4-10 4-5 0-10-5-10-11z"/></g></svg>