<?xml version="1.0" standalone="no"?>
<!DOCTYPE svg PUBLIC "-//W3C//DTD SVG 20010904//EN"
 "http://www.w3.org/TR/2001/REC-SVG-20010904/DTD/svg10.dtd">
<svg version="1.0" xmlns="http://www.w3.org/2000/svg"
 width="260.000000pt" height="260.000000pt" viewBox="0 0 260.000000 260.000000"
 preserveAspectRatio="xMidYMid meet">
<metadata>
Created by potrace 1.14, written by Peter Selinger 2001-2017
</metadata>
<g transform="translate(0.000000,260.000000) scale(0.100000,-0.100000)"
fill="#000000" stroke="none">
<path d="M0 1300 l0 -1300 1300 0 1300 0 0 1300 0 1300 -1300 0 -1300 0 0
-1300z m1353 380 c5 -4 8 -26 9 -48 0 -23 4 -39 9 -36 5 3 10 -5 11 -18 2 -37
3 -42 17 -66 7 -13 10 -30 7 -38 -8 -21 26 -93 47 -100 13 -4 16 -11 12 -22
-14 -33 -17 -102 -7 -129 15 -42 24 -102 12 -83 -8 13 -10 12 -10 -2 0 -10 5
-18 10 -18 18 0 11 -49 -9 -60 -37 -19 -49 -12 -62 43 -7 28 -14 63 -15 77 -9
79 -14 104 -24 114 -5 5 -10 18 -10 27 0 16 -3 16 -30 3 -32 -17 -109 -24
-116 -12 -11 17 -25 7 -19 -13 5 -15 4 -19 -4 -15 -14 9 -49 -71 -64 -144 0
-3 -6 -23 -12 -45 -10 -32 -17 -40 -35 -40 -46 0 -41 89 11 187 10 20 19 45
19 56 0 23 61 149 141 293 54 97 64 109 83 103 11 -3 25 -10 29 -14z m806 -37
c9 -60 -6 -232 -21 -250 -8 -10 -5 -13 10 -13 12 0 26 9 32 20 6 11 17 20 25
20 8 0 15 3 15 8 0 4 14 13 32 21 17 8 39 22 50 33 10 10 24 18 31 17 25 -3
37 1 37 14 0 17 79 57 114 57 27 0 28 -1 14 -22 -20 -30 -71 -58 -80 -45 -4 6
-12 -1 -19 -16 -7 -15 -16 -27 -22 -27 -5 0 -29 -13 -54 -30 -24 -16 -50 -30
-57 -30 -8 0 -16 -9 -19 -19 -2 -11 -15 -21 -28 -23 -49 -7 -28 -77 24 -78 9
0 17 -4 17 -10 0 -5 7 -10 16 -10 21 0 64 -45 64 -67 0 -10 6 -13 16 -9 11 4
15 2 11 -8 -3 -7 -1 -18 5 -24 11 -11 -6 -52 -21 -52 -11 0 -78 66 -91 90 -9
16 -7 22 5 26 21 9 19 21 -6 27 -14 4 -19 2 -16 -8 3 -7 0 -18 -6 -24 -8 -8
-15 -2 -29 19 -17 29 -38 40 -38 21 0 -5 -8 -11 -19 -14 -14 -3 -17 -11 -14
-29 4 -20 0 -27 -19 -32 l-23 -7 23 -11 c45 -22 22 -85 -38 -103 l-25 -8 20
24 c11 13 13 18 5 12 -8 -7 -18 -13 -22 -13 -9 0 -4 112 5 128 4 4 6 45 5 89
0 45 3 87 7 94 4 6 9 35 11 63 2 28 8 69 14 91 7 22 13 49 14 60 2 25 24 65
35 65 4 0 9 -8 10 -17z m-279 -13 c8 -5 19 -5 25 0 6 5 21 -1 38 -16 31 -27
30 -49 -3 -79 -18 -17 -21 -16 -50 9 -18 14 -35 26 -38 26 -12 0 -132 -100
-132 -110 0 -5 -11 -22 -25 -39 -14 -16 -43 -64 -65 -106 l-39 -76 27 -30 c29
-33 108 -56 127 -38 5 5 19 9 32 9 32 0 105 47 128 84 23 35 75 50 75 21 0
-22 -20 -58 -36 -68 -8 -4 -14 -17 -14 -27 0 -10 -4 -22 -10 -25 -5 -3 -7 0
-4 8 3 8 -2 14 -11 14 -8 0 -15 -6 -15 -14 0 -7 -7 -13 -15 -13 -8 0 -15 -7
-15 -15 0 -8 -7 -15 -15 -15 -9 0 -28 -9 -44 -21 -23 -17 -38 -19 -97 -16 -79
5 -111 16 -138 46 -32 35 -20 167 22 241 43 74 131 172 196 216 67 46 74 48
96 34z m-1357 -40 c26 1 39 -4 44 -16 13 -34 -10 -47 -85 -50 -39 -2 -81 -8
-92 -14 -11 -6 -24 -9 -29 -6 -7 5 -82 -26 -131 -53 -22 -12 -24 -40 -3 -48
10 -4 24 -13 31 -20 18 -18 42 -16 42 2 0 8 4 15 9 15 5 0 11 -7 15 -15 3 -9
18 -15 36 -15 21 0 30 -5 30 -16 0 -10 6 -14 14 -11 41 16 143 -53 130 -87 -3
-8 0 -17 6 -21 8 -5 8 -10 0 -20 -6 -8 -10 -19 -8 -27 3 -17 -70 -91 -112
-113 -38 -20 -181 -29 -225 -15 -54 18 -111 161 -70 176 18 7 47 -14 39 -27
-3 -5 0 -9 5 -9 6 0 11 -7 11 -16 0 -30 43 -105 54 -94 14 14 26 12 26 -5 0
-8 7 -15 15 -15 8 0 15 8 15 18 0 12 9 17 35 19 54 3 119 43 123 75 4 33 -13
68 -33 68 -8 0 -15 4 -15 9 0 4 -11 6 -24 4 -16 -3 -28 2 -39 17 -8 12 -20 19
-26 16 -11 -7 -60 14 -83 36 -7 7 -26 22 -42 32 -25 16 -28 22 -23 56 5 36 36
80 57 80 6 0 10 3 10 8 0 4 7 16 15 26 11 15 17 17 29 7 11 -10 17 -8 29 10
14 19 23 21 66 17 44 -4 51 -2 57 14 5 16 12 19 32 14 15 -4 44 -7 65 -6z
m194 -59 c-1 -27 -6 -53 -10 -57 -4 -4 -7 -17 -7 -29 0 -13 -9 -44 -21 -69
-15 -35 -18 -51 -10 -60 6 -8 9 -21 5 -30 -3 -9 -1 -16 5 -16 14 0 15 -37 1
-45 -15 -9 -12 -19 11 -49 14 -17 25 -24 33 -18 18 14 176 14 176 0 0 -9 3 -9
12 0 7 7 17 8 27 3 9 -5 18 -9 21 -9 39 -3 54 -48 24 -73 -16 -13 -144 -20
-144 -8 0 3 6 11 12 17 10 10 10 15 -1 21 -8 5 -10 14 -6 21 5 8 3 11 -6 8 -8
-2 -15 -17 -17 -31 -2 -15 -8 -27 -14 -27 -6 0 -8 12 -5 30 8 39 -7 47 -23 12
-7 -16 -15 -22 -17 -14 -7 19 -23 14 -23 -8 0 -25 -9 -25 -26 -2 -12 15 -13
15 -14 1 0 -12 -10 -17 -39 -17 -47 -1 -65 17 -59 57 2 17 1 28 -4 25 -4 -3
-8 -1 -8 5 0 5 5 13 11 16 6 4 8 13 5 21 -3 7 1 83 9 169 13 155 25 196 50
175 16 -13 45 -2 45 16 0 8 2 14 4 14 3 0 4 -22 3 -49z m1713 -394 c0 -6 -3
-7 -7 -4 -3 4 -12 2 -19 -4 -10 -8 -13 -3 -12 20 1 30 2 31 20 15 10 -10 18
-22 18 -27z"/>
<path d="M1283 1578 c2 -7 -13 -47 -34 -89 -21 -41 -40 -86 -41 -100 -3 -21 1
-24 27 -23 17 0 41 4 54 8 15 5 26 4 31 -4 11 -18 33 -1 25 19 -4 9 -8 25 -10
36 -3 18 -13 64 -31 138 -3 15 -11 27 -16 27 -5 0 -8 -6 -5 -12z"/>
<path d="M2335 1470 c-3 -5 -1 -10 4 -10 6 0 11 5 11 10 0 6 -2 10 -4 10 -3 0
-8 -4 -11 -10z"/>
<path d="M2130 1345 c-11 -13 -8 -15 13 -15 19 0 25 4 21 15 -4 8 -10 15 -14
15 -4 0 -13 -7 -20 -15z"/>
<path d="M2105 1250 c3 -5 8 -10 11 -10 2 0 4 5 4 10 0 6 -5 10 -11 10 -5 0
-7 -4 -4 -10z"/>
<path d="M300 1340 c0 -5 5 -10 11 -10 5 0 7 5 4 10 -3 6 -8 10 -11 10 -2 0
-4 -4 -4 -10z"/>
<path d="M462 1241 c2 -9 12 -16 23 -16 11 0 21 7 23 16 2 12 -4 17 -23 17
-19 0 -25 -5 -23 -17z"/>
<path d="M645 1169 c-4 -6 -5 -13 -2 -16 7 -7 27 6 27 18 0 12 -17 12 -25 -2z"/>
</g>
</svg>
